<?xml version="1.0" encoding="utf-8"?>
<svg xmlns="http://www.w3.org/2000/svg" xmlns:xlink="http://www.w3.org/1999/xlink" version="1.1" id="Layer_1" x="0px" y="0px" viewBox="0 0 516 516" style="enable-background:new 0 0 516 516;">
<style type="text/css">
	.st0{fill:#0073FF;}
	.st1{opacity:0.31;fill:#0073FF;stroke:#000000;stroke-miterlimit:10;}
</style>
<path class="st0" d="M102.39,141.29c5.46,11.84,9.4,23.38,15.75,33.4c7.93,12.52,16.79,24.82,27.1,35.42  c35.43,36.42,71.69,72.03,107.57,108.01c2.83,2.84,4.83,4.3,8.46,0.64c37.16-37.44,74.61-74.59,111.7-112.11  c17.02-17.22,29.03-37.68,36.61-60.71c0.36-1.1,0.76-2.19,1.22-3.26c0.12-0.27,0.52-0.42,1.07-0.82  c4.02,15.06,4.83,30.32,3.64,45.51c-2.2,28.1-10.73,54.28-27.04,77.48c-5.88,8.37-12.4,16.46-19.58,23.73  c-36.26,36.7-72.83,73.08-109.3,109.57c-0.54,0.54-1.17,0.99-2.04,1.71c-0.75-0.5-1.61-0.89-2.23-1.52  c-37.8-37.89-75.92-75.48-113.25-113.83c-24.7-25.38-38.68-56.29-42.03-91.68c-0.87-9.23-1.25-18.57-0.88-27.82  C99.45,157.33,101.18,149.71,102.39,141.29z"/>
<path class="st0" d="M257.52,151.8c-31.87,1.29-58.42-26.84-58.36-58.08c0.06-32.23,27.97-58.39,58.57-58.17  c26.41,0.19,57.92,20.73,58.1,58.1C316,129.33,286.57,152.9,257.52,151.8z"/>
<path class="st1" d="M102.39,217.44c5.46,11.84,9.4,23.38,15.75,33.4c7.93,12.52,16.79,24.82,27.1,35.42  c35.43,36.42,71.69,72.03,107.57,108.01c2.83,2.84,4.83,4.3,8.46,0.64c37.16-37.44,74.61-74.59,111.7-112.11  c17.02-17.22,29.03-37.68,36.61-60.71c0.36-1.1,0.76-2.19,1.22-3.26c0.12-0.27,0.52-0.42,1.07-0.82  c4.02,15.06,4.83,30.32,3.64,45.51c-2.2,28.1-10.73,54.28-27.04,77.48c-5.88,8.37-12.4,16.46-19.58,23.73  c-36.26,36.7-72.83,73.08-109.3,109.57c-0.54,0.54-1.17,0.99-2.04,1.71c-0.75-0.5-1.61-0.89-2.23-1.52  c-37.8-37.89-75.92-75.48-113.25-113.83c-24.7-25.38-38.68-56.29-42.03-91.68c-0.87-9.23-1.25-18.57-0.88-27.82  C99.45,233.48,101.18,225.86,102.39,217.44z"/>
</svg>
